<?xml version="1.0" encoding="UTF-8" standalone="no"?>
<!-- Created with Inkscape (http://www.inkscape.org/) -->
<svg
   xmlns:dc="http://purl.org/dc/elements/1.1/"
   xmlns:cc="http://creativecommons.org/ns#"
   xmlns:rdf="http://www.w3.org/1999/02/22-rdf-syntax-ns#"
   xmlns:svg="http://www.w3.org/2000/svg"
   xmlns="http://www.w3.org/2000/svg"
   xmlns:xlink="http://www.w3.org/1999/xlink"
   xmlns:sodipodi="http://sodipodi.sourceforge.net/DTD/sodipodi-0.dtd"
   xmlns:inkscape="http://www.inkscape.org/namespaces/inkscape"
   id="svg2488"
   sodipodi:version="0.32"
   inkscape:version="0.46"
   width="102"
   height="252"
   version="1.0"
   sodipodi:docname="diamond-puzzle-green.svg"
   inkscape:output_extension="org.inkscape.output.svg.inkscape">
  <metadata
     id="metadata2493">
    <rdf:RDF>
      <cc:Work
         rdf:about="">
        <dc:format>image/svg+xml</dc:format>
        <dc:type
           rdf:resource="http://purl.org/dc/dcmitype/StillImage" />
      </cc:Work>
    </rdf:RDF>
  </metadata>
  <defs
     id="defs2491">
    <inkscape:perspective
       sodipodi:type="inkscape:persp3d"
       inkscape:vp_x="0 : 526.18109 : 1"
       inkscape:vp_y="0 : 1000 : 0"
       inkscape:vp_z="744.09448 : 526.18109 : 1"
       inkscape:persp3d-origin="372.04724 : 350.78739 : 1"
       id="perspective2495" />
  </defs>
  <sodipodi:namedview
     inkscape:window-height="675"
     inkscape:window-width="640"
     inkscape:pageshadow="2"
     inkscape:pageopacity="0.0"
     guidetolerance="10.0"
     gridtolerance="10.0"
     objecttolerance="10.0"
     borderopacity="1.0"
     bordercolor="#666666"
     pagecolor="#ffffff"
     id="base"
     showgrid="false"
     inkscape:zoom="1.8333333"
     inkscape:cx="51"
     inkscape:cy="126"
     inkscape:window-x="240"
     inkscape:window-y="95"
     inkscape:current-layer="svg2488" />
  <image
     xlink:href="diamond-puzzle-green.png"
     sodipodi:absref="C:\Documents and Settings\Administrator\Desktop\drag-shapes\diamond-puzzle-green.png"
     width="102"
     height="252"
     id="image2497"
     x="0"
     y="0" />
  <path
     style="fill:none;fill-rule:evenodd;stroke:#000000;stroke-width:1px;stroke-linecap:butt;stroke-linejoin:miter;stroke-opacity:1"
     d="M -0.54545455,51.818182 C 1.7511337,47.450064 8.6111869,42.008744 12.545455,37.090909 C 15.781512,33.045837 21.173397,29.157129 25.636364,26.181818 C 29.960085,23.299337 33.01897,17.708303 36,14.727273 C 39.719393,11.00788 41.391837,6.5924857 45.818182,3.2727273 C 51.896782,-1.286223 49.229242,-2.8421709e-14 57.818182,-2.8421709e-14 C 66,-2.8421709e-14 74.181818,-2.8421709e-14 82.363636,-2.8421709e-14 C 87.356055,-2.8421709e-14 93.999909,0.18179556 95.454545,0.54545455 C 101.40363,2.0327251 101.45455,0.055790433 101.45455,7.6363636 C 101.45455,11.231373 102.88377,15.873408 103.63636,19.636364 C 104.67905,24.849776 105.27273,30.13903 105.27273,35.454545 C 105.27273,41.308949 105.81818,46.51996 105.81818,52.363636 C 105.81818,55.837268 98.928177,51.272727 95.454545,51.272727 C 88.571754,51.272727 81.237453,50.888156 74.727273,51.818182 C 70.913886,52.362951 66.591681,51.818182 62.727273,51.818182 C 56.605732,51.818182 51.291186,44.801109 52.909091,51.272727 C 54.725114,58.536821 53.454545,67.330237 53.454545,74.727273 C 53.454545,85.136212 54,95.446087 54,105.81818 C 54,116 54,126.18182 54,136.36364 C 54,142.05581 49.075687,152.18182 56.727273,152.18182 C 62.303861,152.18182 67.63569,152.72727 73.090909,152.72727 C 81.41732,152.72727 90.666724,152.75153 98.727273,154.36364 C 107.20281,156.05874 106.21481,155.85143 103.09091,164.18182 C 101.25715,169.07185 103.63636,176.62406 103.63636,181.63636 C 103.63636,190.10859 104.87778,198.80913 105.81818,207.27273 C 107.01704,218.06243 109.09091,229.21446 109.09091,240 C 109.09091,247.11186 110.54936,258.35583 108,263.45455 C 107.55846,264.33762 100.82088,257.87327 93.272727,256.36364 C 84.964663,254.70202 74.971978,250.90909 65.454545,250.90909 C 61.696786,250.90909 55.812997,249.23429 51.818182,247.63636 C 47.553741,245.93059 50.181818,238.39481 50.181818,235.09091 C 50.181818,229.99854 51.272727,225.44315 51.272727,220.36364 C 51.272727,215.46276 50.181818,211.84789 50.181818,207.27273 C 50.181818,203.13987 46.6402,199.64404 45.272727,196.90909 C 43.326446,193.01653 35.505735,188.49294 32.181818,186 C 27.019308,182.12812 21.755139,177.44048 17.454545,174 C 14.224748,171.41616 11.429117,167.89829 10.363636,163.63636 C 9.6404807,160.74374 4.6815486,154.79532 2.7272727,153.81818 C -2.2703433,151.31937 -2.1818182,144.58629 -2.1818182,139.09091 C -2.1818182,133.09758 -1.0695168,126.05348 -3.2727273,120.54545 C -5.3053086,115.464 -6,107.30198 -6,101.45455 C -6,92.516375 -6.9111576,82.921491 -5.4545455,74.181818 C -3.9099391,64.91418 -4.9455817,55.236872 -2.7272727,46.363636 C -2.1164008,43.920149 -1.6363636,44.962952 -1.6363636,46.363636 C -1.6363636,48.667156 -1.4959262,49.442003 -0.54545455,51.818182 z"
     id="path2499" />
</svg>
